<?xml version="1.0" encoding="UTF-8" standalone="no"?>
<!-- Created with Inkscape (http://www.inkscape.org/) -->

<svg
   width="512"
   height="512"
   viewBox="0 0 512 512"
   version="1.1"
   id="svg5"
   xml:space="preserve"
   inkscape:version="1.2.1 (9c6d41e410, 2022-07-14, custom)"
   sodipodi:docname="languages.svg"
   xmlns:inkscape="http://www.inkscape.org/namespaces/inkscape"
   xmlns:sodipodi="http://sodipodi.sourceforge.net/DTD/sodipodi-0.dtd"
   xmlns="http://www.w3.org/2000/svg"
   xmlns:svg="http://www.w3.org/2000/svg"><sodipodi:namedview
     id="namedview7"
     pagecolor="#ffffff"
     bordercolor="#999999"
     borderopacity="1"
     inkscape:showpageshadow="0"
     inkscape:pageopacity="0"
     inkscape:pagecheckerboard="0"
     inkscape:deskcolor="#d1d1d1"
     inkscape:document-units="px"
     showgrid="false"
     inkscape:zoom="1.4142136"
     inkscape:cx="142.12846"
     inkscape:cy="255.26555"
     inkscape:window-width="1920"
     inkscape:window-height="1023"
     inkscape:window-x="1920"
     inkscape:window-y="28"
     inkscape:window-maximized="1"
     inkscape:current-layer="layer1" /><defs
     id="defs2" /><g
     inkscape:label="Layer 1"
     inkscape:groupmode="layer"
     id="layer1"><rect
       style="fill:#ffffff;stroke:none;stroke-width:2"
       id="rect564"
       width="102.1853"
       height="75.40033"
       x="307.30103"
       y="400.13351" /><g
       id="g171"
       transform="matrix(1.3031977,0,0,1.3031977,162.08837,104.71616)">
	<g
   id="g140">
		<g
   id="g138">
			<g
   id="g136">
				<path
   class="st1"
   d="m 40.2,101.1 c -0.4,0 -0.5,-0.2 -0.3,-0.5 L 42,97.9 c 0.2,-0.3 0.7,-0.5 1.1,-0.5 h 35.7 c 0.4,0 0.5,0.3 0.3,0.6 l -1.7,2.6 c -0.2,0.3 -0.7,0.6 -1,0.6 z"
   id="path134" />
			</g>
		</g>
	</g>
	<g
   id="g148">
		<g
   id="g146">
			<g
   id="g144">
				<path
   class="st1"
   d="m 25.1,110.3 c -0.4,0 -0.5,-0.2 -0.3,-0.5 l 2.1,-2.7 c 0.2,-0.3 0.7,-0.5 1.1,-0.5 h 45.6 c 0.4,0 0.6,0.3 0.5,0.6 l -0.8,2.4 c -0.1,0.4 -0.5,0.6 -0.9,0.6 z"
   id="path142" />
			</g>
		</g>
	</g>
	<g
   id="g156">
		<g
   id="g154">
			<g
   id="g152">
				<path
   class="st1"
   d="m 49.3,119.5 c -0.4,0 -0.5,-0.3 -0.3,-0.6 l 1.4,-2.5 c 0.2,-0.3 0.6,-0.6 1,-0.6 h 20 c 0.4,0 0.6,0.3 0.6,0.7 l -0.2,2.4 c 0,0.4 -0.4,0.7 -0.7,0.7 z"
   id="path150" />
			</g>
		</g>
	</g>
	<g
   id="g169">
		<g
   id="CXHf1q_7_">
			<g
   id="g166">
				<g
   id="g160">
					<path
   class="st1"
   d="m 153.1,99.3 c -6.3,1.6 -10.6,2.8 -16.8,4.4 -1.5,0.4 -1.6,0.5 -2.9,-1 -1.5,-1.7 -2.6,-2.8 -4.7,-3.8 -6.3,-3.1 -12.4,-2.2 -18.1,1.5 -6.8,4.4 -10.3,10.9 -10.2,19 0.1,8 5.6,14.6 13.5,15.7 6.8,0.9 12.5,-1.5 17,-6.6 0.9,-1.1 1.7,-2.3 2.7,-3.7 -3.6,0 -8.1,0 -19.3,0 -2.1,0 -2.6,-1.3 -1.9,-3 1.3,-3.1 3.7,-8.3 5.1,-10.9 0.3,-0.6 1,-1.6 2.5,-1.6 5.1,0 23.9,0 36.4,0 -0.2,2.7 -0.2,5.4 -0.6,8.1 -1.1,7.2 -3.8,13.8 -8.2,19.6 -7.2,9.5 -16.6,15.4 -28.5,17 -9.8,1.3 -18.9,-0.6 -26.9,-6.6 -7.4,-5.6 -11.6,-13 -12.7,-22.2 -1.3,-10.9 1.9,-20.7 8.5,-29.3 7.1,-9.3 16.5,-15.2 28,-17.3 9.4,-1.7 18.4,-0.6 26.5,4.9 5.3,3.5 9.1,8.3 11.6,14.1 0.6,0.9 0.2,1.4 -1,1.7 z"
   id="path158" />
				</g>
				<g
   id="g164">
					<path
   class="st1"
   d="m 186.2,154.6 c -9.1,-0.2 -17.4,-2.8 -24.4,-8.8 -5.9,-5.1 -9.6,-11.6 -10.8,-19.3 -1.8,-11.3 1.3,-21.3 8.1,-30.2 7.3,-9.6 16.1,-14.6 28,-16.7 10.2,-1.8 19.8,-0.8 28.5,5.1 7.9,5.4 12.8,12.7 14.1,22.3 1.7,13.5 -2.2,24.5 -11.5,33.9 -6.6,6.7 -14.7,10.9 -24,12.8 -2.7,0.5 -5.4,0.6 -8,0.9 z M 210,114.2 c -0.1,-1.3 -0.1,-2.3 -0.3,-3.3 -1.8,-9.9 -10.9,-15.5 -20.4,-13.3 -9.3,2.1 -15.3,8 -17.5,17.4 -1.8,7.8 2,15.7 9.2,18.9 5.5,2.4 11,2.1 16.3,-0.6 7.9,-4.1 12.2,-10.5 12.7,-19.1 z"
   id="path162" />
				</g>
			</g>
		</g>
	</g>
</g><g
       id="g367"
       transform="matrix(0.50081774,0,0,0.50081774,299.69063,26.412674)"><path
         d="m 255.569,84.452376 c -0.002,-4.83 -1.035,-9.098 -3.124,-12.761 -2.052,-3.602 -5.125,-6.621 -9.247,-9.008 -34.025,-19.619 -68.083,-39.178 -102.097,-58.8169999 -9.17,-5.294 -18.061,-5.101 -27.163,0.2689999 -13.543,7.987 -81.348,46.834 -101.553,58.537 -8.321,4.817 -12.37,12.189 -12.372,21.771 C 0,123.89838 0.013,163.35238 0,202.80838 c 0,4.724 0.991,8.909 2.988,12.517 2.053,3.711 5.169,6.813 9.386,9.254 20.206,11.703 88.02,50.547 101.56,58.536 9.106,5.373 17.997,5.565 27.17,0.269 34.015,-19.64 68.075,-39.198 102.105,-58.817 4.217,-2.44 7.333,-5.544 9.386,-9.252 1.994,-3.608 2.987,-7.793 2.987,-12.518 0,0 0,-78.889 -0.013,-118.345004"
         fill="#a179dc"
         fill-rule="nonzero"
         id="path357" /><path
         d="m 128.182,143.24138 -125.194,72.084 c 2.053,3.711 5.169,6.813 9.386,9.254 20.206,11.703 88.02,50.547 101.56,58.536 9.106,5.373 17.997,5.565 27.17,0.269 34.015,-19.64 68.075,-39.198 102.105,-58.817 4.217,-2.44 7.333,-5.544 9.386,-9.252 l -124.413,-72.074"
         fill="#280068"
         fill-rule="nonzero"
         id="path359" /><path
         d="m 255.569,84.452376 c -0.002,-4.83 -1.035,-9.098 -3.124,-12.761 l -124.263,71.550004 124.413,72.074 c 1.994,-3.608 2.985,-7.793 2.987,-12.518 0,0 0,-78.889 -0.013,-118.345004"
         fill="#390091"
         fill-rule="nonzero"
         id="path361" /><path
         d="m 201.89233,116.29401 v 13.47368 h 13.47368 v -13.47368 h 6.73684 v 13.47368 h 13.47369 v 6.73684 h -13.47369 v 13.47369 h 13.47369 v 6.73684 h -13.47369 v 13.47368 h -6.73684 v -13.47368 h -13.47368 v 13.47368 h -6.73685 V 156.71506 H 181.6818 v -6.73684 h 13.47368 V 136.50453 H 181.6818 v -6.73684 h 13.47368 v -13.47368 z m 13.47368,20.21052 h -13.47368 v 13.47369 h 13.47368 z"
         fill="#ffffff"
         id="path363" /><path
         d="m 128.45675,48.625876 c 35.14377,0 65.82713,19.086298 82.26181,47.456067 l -0.16037,-0.273067 -41.34857,23.808284 C 161.06296,105.82355 146.12814,96.515072 128.99638,96.323372 l -0.53963,-0.003 c -26.12557,0 -47.306079,21.179388 -47.306079,47.304968 0,8.54361 2.277774,16.5522 6.238976,23.46947 8.154098,14.23525 23.482903,23.83661 41.067103,23.83661 17.69277,0 33.10889,-9.72336 41.22157,-24.11084 l -0.19713,0.34532 41.28649,23.91803 c -16.2544,28.12956 -46.51741,47.15695 -81.2527,47.53619 l -1.05823,0.006 c -35.25458,0 -66.025247,-19.20383 -82.41851,-47.72358 -8.002993,-13.92297 -12.582048,-30.06439 -12.582048,-47.27698 0,-52.466058 42.532268,-94.999446 95.000558,-94.999446 z"
         fill="#ffffff"
         fill-rule="nonzero"
         id="path365" /></g><path
       d="m 287.17664,415.45057 v 64 h 64 64 v -64 -64 h -64 -64 z m 103.15174,-5.09968 c 3.2508,0.8127 5.72953,2.25524 8.00508,4.61206 1.17842,1.25968 2.92572,3.55556 3.06794,4.10413 0.0406,0.16254 -5.52635,3.90095 -8.89905,5.99365 -0.1219,0.0813 -0.60952,-0.44699 -1.15809,-1.25968 -1.64572,-2.39746 -3.3727,-3.43365 -6.01397,-3.61651 -3.88064,-0.26413 -6.37968,1.76762 -6.35937,5.16063 0,0.99556 0.14223,1.58477 0.54858,2.39746 0.85333,1.76762 2.43809,2.82413 7.41587,4.97778 9.16317,3.94159 13.08444,6.54222 15.52254,10.24 2.72254,4.12445 3.33206,10.7073 1.48317,15.60381 -2.03174,5.32318 -7.07047,8.93968 -14.16127,10.13841 -2.19428,0.38604 -7.39555,0.32508 -9.75238,-0.10158 -5.14032,-0.91429 -10.01651,-3.45397 -13.02349,-6.78604 -1.17841,-1.30031 -3.47429,-4.69333 -3.33206,-4.93714 0.0609,-0.0813 0.5892,-0.40635 1.17841,-0.75174 0.56889,-0.32508 2.72254,-1.56445 4.75429,-2.74286 l 3.67746,-2.13333 0.77206,1.13777 c 1.07682,1.64572 3.43365,3.90096 4.85587,4.6527 4.08381,2.15365 9.69143,1.84889 12.45461,-0.62984 1.17841,-1.07683 1.66603,-2.19429 1.66603,-3.84 0,-1.48317 -0.18286,-2.13333 -0.95492,-3.25079 -0.99556,-1.42223 -3.02731,-2.62096 -8.79746,-5.12 -6.60318,-2.84445 -9.44762,-4.61207 -12.04826,-7.41588 -1.50349,-1.62539 -2.92571,-4.22603 -3.51492,-6.4 -0.48762,-1.80825 -0.60952,-6.33904 -0.22349,-8.16762 1.36127,-6.37968 6.17651,-10.8292 13.12508,-12.14984 2.25524,-0.42666 7.49714,-0.26412 9.71174,0.28445 z m -30.04952,5.34349 0.0406,5.2419 h -8.33015 -8.33016 v 23.66985 23.66984 h -5.89207 -5.89206 v -23.66984 -23.66985 h -8.33016 -8.33016 v -5.14031 c 0,-2.84445 0.0609,-5.22159 0.14223,-5.28254 0.0609,-0.0813 10.19936,-0.12191 22.49142,-0.10159 l 22.36953,0.0609 z"
       id="path448"
       style="fill:#007acc;stroke:none;stroke-width:0.0203175" /><g
       id="logo"
       transform="matrix(0.2031746,0,0,0.2031746,67.22449,301.71269)"><rect
         id="background"
         x="0"
         y="0"
         width="630"
         height="630"
         fill="#f7df1e" /><path
         id="j"
         d="m 165.65,526.47375 48.2125,-29.1775 C 223.16375,513.7875 231.625,527.74 251.92,527.74 c 19.45375,0 31.71875,-7.60975 31.71875,-37.21 v -201.3 h 59.20375 v 202.1375 c 0,61.32 -35.94375,89.23125 -88.385,89.23125 -47.36125,0 -74.8525,-24.52875 -88.8075,-54.13" /><path
         id="s"
         d="m 375,520.13 48.20625,-27.91125 c 12.69,20.72375 29.1825,35.9475 58.36125,35.9475 24.53125,0 40.17375,-12.26475 40.17375,-29.18125 0,-20.29875 -16.06875,-27.48875 -43.135,-39.32625 l -14.7975,-6.3475 c -42.715,-18.18125 -71.05,-41.0175 -71.05,-89.2275 0,-44.40375 33.83125,-78.2375 86.695,-78.2375 37.6375,0 64.7025,13.11125 84.15375,47.36625 l -46.09625,29.60125 c -10.15,-18.1825 -21.1425,-25.37125 -38.0575,-25.37125 -17.33875,0 -28.335,10.995 -28.335,25.37125 0,17.7625 10.99625,24.9525 36.3675,35.94875 l 14.8,6.3425 c 50.325,21.56875 78.66,43.5575 78.66,93.03375 0,53.2875 -41.86625,82.465 -98.11,82.465 -54.97625,0 -90.5,-26.2175 -107.83625,-60.47375" /></g><g
       aria-label="Java"
       id="text1509"
       style="font-weight:500;font-size:94.3294px;line-height:1.25;font-family:'Noto Sans Arabic';-inkscape-font-specification:'Noto Sans Arabic Medium';fill:#da2f2e;stroke-width:1.17912"><path
         d="m 53.691806,170.64294 q -2.452564,0 -4.244823,-0.37732 -1.886588,-0.28299 -3.2072,-0.84897 v -8.48964 q 1.509271,0.37731 3.2072,0.6603 1.697929,0.28299 3.584517,0.28299 2.358235,0 4.433482,-0.94329 2.075247,-0.9433 3.301529,-3.39586 1.320611,-2.45257 1.320611,-6.88605 V 84.803182 h 10.187576 v 65.370278 q 0,10.65922 -5.188117,15.56435 -5.093788,4.90513 -13.394775,4.90513 z"
         id="path1679" /><path
         d="m 108.40294,100.36753 q 9.52727,0 14.24374,4.24483 4.8108,4.15049 4.8108,13.11178 v 34.43023 h -7.0747 l -1.98092,-7.0747 h -0.37732 q -3.30153,4.15049 -6.98037,6.13141 -3.58452,1.88659 -9.99892,1.88659 -6.886046,0 -11.413857,-3.67885 -4.527811,-3.77318 -4.527811,-11.69684 0,-7.73502 5.848423,-11.79118 5.848422,-4.05616 18.016915,-4.43348 l 8.6783,-0.28299 v -2.82988 q 0,-5.56544 -2.54689,-7.82934 -2.54689,-2.35824 -7.16903,-2.35824 -3.86751,0 -7.45203,1.13196 -3.584513,1.13195 -6.886042,2.73555 l -3.2072,-7.26337 q 3.584517,-1.88658 8.206658,-3.11287 4.716474,-1.32061 9.810254,-1.32061 z m 2.35824,27.54419 q -8.67831,0.37732 -12.074165,2.92421 -3.301529,2.45256 -3.301529,6.98037 0,3.96184 2.358235,5.7541 2.358239,1.79226 6.131409,1.79226 5.84843,0 9.71593,-3.30153 3.96184,-3.30153 3.96184,-9.90459 v -4.43348 z"
         id="path1681" /><path
         d="m 154.24698,152.15437 -19.2432,-50.84354 h 10.56489 l 10.5649,29.71376 q 1.03762,2.92421 2.07524,6.60306 1.03763,3.58451 1.32061,5.94275 h 0.37732 q 0.37732,-2.35824 1.50927,-6.03708 1.13195,-3.67885 2.07525,-6.50873 l 10.56489,-29.71376 h 10.56489 l -19.33752,50.84354 z"
         id="path1683" /><path
         d="m 212.16531,100.36753 q 9.52727,0 14.24374,4.24483 4.8108,4.15049 4.8108,13.11178 v 34.43023 h -7.0747 l -1.98092,-7.0747 h -0.37732 q -3.30153,4.15049 -6.98037,6.13141 -3.58452,1.88659 -9.99892,1.88659 -6.88605,0 -11.41386,-3.67885 -4.52781,-3.77318 -4.52781,-11.69684 0,-7.73502 5.84842,-11.79118 5.84843,-4.05616 18.01692,-4.43348 l 8.6783,-0.28299 v -2.82988 q 0,-5.56544 -2.54689,-7.82934 -2.54689,-2.35824 -7.16903,-2.35824 -3.86751,0 -7.45203,1.13196 -3.58451,1.13195 -6.88604,2.73555 l -3.2072,-7.26337 q 3.58451,-1.88658 8.20666,-3.11287 4.71647,-1.32061 9.81025,-1.32061 z m 2.35824,27.54419 q -8.67831,0.37732 -12.07417,2.92421 -3.30152,2.45256 -3.30152,6.98037 0,3.96184 2.35823,5.7541 2.35824,1.79226 6.13141,1.79226 5.84842,0 9.71593,-3.30153 3.96183,-3.30153 3.96183,-9.90459 v -4.43348 z"
         id="path1685" /></g></g><style
     type="text/css"
     id="style132">
	.st0{fill:#2DBCAF;}
	.st1{fill:#5DC9E1;}
	.st2{fill:#FDDD00;}
	.st3{fill:#CE3262;}
	.st4{fill:#00ACD7;}
	.st5{fill:#FFFFFF;}
</style></svg>
